<svg xmlns="http://www.w3.org/2000/svg" viewBox="0 0 32 32" fill="none">
  <!-- Background -->
  <rect width="32" height="32" fill="#1f2937" rx="4"/>
  
  <!-- Left Turntable -->
  <circle cx="10" cy="12" r="6" fill="#374151" stroke="#6b7280" stroke-width="0.5"/>
  <circle cx="10" cy="12" r="4" fill="#111827"/>
  <circle cx="10" cy="12" r="1.5" fill="#f97316"/>
  <circle cx="10" cy="12" r="0.8" fill="#1f2937"/>
  
  <!-- Right Turntable -->
  <circle cx="22" cy="12" r="6" fill="#374151" stroke="#6b7280" stroke-width="0.5"/>
  <circle cx="22" cy="12" r="4" fill="#111827"/>
  <circle cx="22" cy="12" r="1.5" fill="#f97316"/>
  <circle cx="22" cy="12" r="0.8" fill="#1f2937"/>
  
  <!-- Mixer section -->
  <rect x="4" y="22" width="24" height="6" fill="#374151" rx="1"/>
  
  <!-- Faders -->
  <rect x="7" y="23" width="1" height="4" fill="#6b7280" rx="0.5"/>
  <rect x="10" y="23" width="1" height="4" fill="#6b7280" rx="0.5"/>
  <rect x="13" y="23" width="1" height="4" fill="#6b7280" rx="0.5"/>
  
  <!-- Crossfader -->
  <rect x="16" y="25" width="8" height="1" fill="#6b7280" rx="0.5"/>
  <rect x="19" y="24.5" width="2" height="2" fill="#f97316" rx="0.5"/>
  
  <!-- Knobs -->
  <circle cx="21" cy="24" r="1" fill="#6b7280"/>
  <circle cx="24" cy="24" r="1" fill="#6b7280"/>
  
  <!-- Tone arm on left turntable -->
  <line x1="8" y1="8" x2="12" y2="10" stroke="#9ca3af" stroke-width="0.8" stroke-linecap="round"/>
  <circle cx="12" cy="10" r="0.5" fill="#f97316"/>
  
  <!-- Tone arm on right turntable -->
  <line x1="24" y1="8" x2="20" y2="10" stroke="#9ca3af" stroke-width="0.8" stroke-linecap="round"/>
  <circle cx="20" cy="10" r="0.5" fill="#f97316"/>
</svg>
